# xmcd
# Track frame offsets:
# 150
# 16374
# 32286
# 45457
# 60241
# 75652
# 90888
# 106339
# 122547
# 135411
# 152807
# 168398
# 181974
# 197814
# 210416
#
# Disc length: 3028 seconds
# Revision: 0
# Processed by: cddbd v1.5.1PL0 Copyright (c) Steve Scherf et al.
# Submitted via: VisiTrax 2.9.10.228 - For more info visit www.synapsa.com
#
DISCID=a90bd20f
DTITLE=McCoy, Neal - CB90057
DYEAR=1900
DGENRE=Karaoke
TTITLE0=Shake, The
TTITLE1=For A Change
TTITLE2=Wink
TTITLE3=Girls Of Summer, The
TTITLE4=Going, Going, Gone
TTITLE5=I Was
TTITLE6=If I Was A Drinkin' Man
TTITLE7=If You Can't Be Good (Be Good At It)
TTITLE8=Love Happens Like That
TTITLE9=No Doubt About It
TTITLE10=Party On
TTITLE11=That Woman Of Mine
TTITLE12=They're Playing Our Song
TTITLE13=You Gotta Love That
TTITLE14=City Put The Country Back In Me, The
EXTD=
EXTT0=
EXTT1=
EXTT2=
EXTT3=
EXTT4=
EXTT5=
EXTT6=
EXTT7=
EXTT8=
EXTT9=
EXTT10=
EXTT11=
EXTT12=
EXTT13=
EXTT14=
PLAYORDER=
